<svg width="1714" height="1355" xmlns="http://www.w3.org/2000/svg">
 <!-- Created with Method Draw - http://github.com/duopixel/Method-Draw/ -->

 <g>
  <title>background</title>
  <rect fill="#ffffff" id="canvas_background" height="1357" width="1716" y="-1" x="-1"/>
  <g display="none" overflow="visible" y="0" x="0" height="100%" width="100%" id="canvasGrid">
   <rect fill="url(#gridpattern)" stroke-width="0" height="960" width="1280"/>
  </g>
 </g>
 <g>
  <title>Layer 1</title>
  <g stroke="null" id="svg_5">
   <path fill="#fee05d" stroke="null" id="svg_4" d="m1686.0694,190.04505a694.44439,694.44439 0 0 1 -196.18054,53.81944a344.30553,344.30553 0 0 0 150.20832,-189.09721c-66.04166,38.54166 -139.2361,66.59722 -217.15276,82.22222a341.66664,341.66664 0 0 0 -582.22218,311.24998c-284.02776,-13.40278 -535.62496,-149.8611 -704.16661,-355.9722a334.86109,334.86109 0 0 0 -46.25,171.87499c0,118.74999 60.41666,223.12498 151.94443,284.44442a340.55553,340.55553 0 0 1 -154.72221,-42.77777l0,4.16667a341.87497,341.87497 0 0 0 274.02776,335.20831a346.94442,346.94442 0 0 1 -153.6111,5.90278a342.77775,342.77775 0 0 0 319.7222,237.29165a685.20828,685.20828 0 0 1 -423.74997,146.18054c-27.08333,0 -54.09722,-1.59722 -81.24999,-4.65278a971.87493,971.87493 0 0 0 524.79163,153.40277c628.68051,0 972.08326,-520.55552 972.08326,-971.18048c0,-14.58333 0,-29.16666 -1.04167,-43.75a689.9305,689.9305 0 0 0 170.83332,-176.94443l-3.26389,-1.38889z"/>
  </g>
 </g>
</svg>