<svg width="1713.9999999999998" height="1355" xmlns="http://www.w3.org/2000/svg">
 <!-- Created with Method Draw - http://github.com/duopixel/Method-Draw/ -->

 <g>
  <title>background</title>
  <rect fill="none" id="canvas_background" height="1357" width="1716" y="-1" x="-1"/>
  <g display="none" overflow="visible" y="0" x="0" height="100%" width="100%" id="canvasGrid">
   <rect fill="url(#gridpattern)" stroke-width="0" height="960" width="1280"/>
  </g>
 </g>
 <g>
  <title>Layer 1</title>
  <g stroke="null" id="svg_10">
   <path fill="#fee05d" stroke="null" id="svg_9" d="m1316.3903,1130.14029l-177.71704,0l0,-278.47669c0,-66.40637 -1.35013,-151.86456 -92.60888,-151.86456c-92.65888,0 -106.81024,72.25693 -106.81024,146.96409l0,283.37716l-177.71704,0l0,-572.65489l170.71636,0l0,78.05748l2.30022,0c23.85229,-45.00431 81.85785,-92.50887 168.51615,-92.50887c180.06726,0 213.37045,118.51136 213.37045,272.77615l0,314.33013l-0.05,0zm-755.57243,-651.0124c-57.20548,0 -103.15989,-46.30444 -103.15989,-103.2599c0,-56.90545 46.00441,-103.15989 103.15989,-103.15989c57.00546,0 103.20989,46.25443 103.20989,103.15989c0,56.95546 -46.25443,103.2599 -103.20989,103.2599zm89.10854,651.0124l-178.21708,0l0,-572.65489l178.21708,0l0,572.65489zm755.37241,-1022.69803l-1022.79804,0c-48.95469,0 -88.55849,38.70371 -88.55849,86.45829l0,1027.19846c0,47.80458 39.6038,86.45829 88.55849,86.45829l1022.64803,0c48.90469,0 88.90852,-38.65371 88.90852,-86.45829l0,-1027.19846c0,-47.75458 -40.00383,-86.45829 -88.90852,-86.45829l0.15001,0z"/>
  </g>
 </g>
</svg>