<svg width="1667" height="1250" xmlns="http://www.w3.org/2000/svg">
 <!-- Created with Method Draw - http://github.com/duopixel/Method-Draw/ -->

 <g>
  <title>background</title>
 </g>
 <g>
  <title>Layer 1</title>
  <g id="svg_5">
   <path fill="#fee05d" id="svg_4" d="m1665.66654,103.16666l0,1041.66659c0,59.02777 -45.13889,104.16666 -104.16666,104.16666l-104.16666,0l0,-945.34715l-624.99995,448.81941l-624.99995,-448.81941l0,945.34715l-104.16666,0c-59.09722,0 -104.16666,-45.13889 -104.16666,-104.16666l0,-1041.66659c0,-29.51389 11.25,-55.55555 29.93055,-74.16666c18.68055,-18.88889 44.79166,-30 74.23611,-30l34.72222,0l694.44439,503.47218l694.44439,-503.47218l34.72222,0c29.51389,0 55.55555,11.25 74.23611,30c18.75,18.61111 29.93055,44.65277 29.93055,74.16666z"/>
  </g>
 </g>
</svg>